999
dxflib 2.2.0.0
  0
SECTION
  2
HEADER
  9
$ACADVER
  1
AC1015
  9
$HANDSEED
  5
FFFF
  9
$DIMASZ
 40
0.1
  9
$PLIMMIN
 10
0.0
 20
0.0
  9
$DIMEXE
 40
0.05
  9
$DIMGAP
 40
0.025
  9
$PLIMMAX
 10
8.2677165354330722
 20
11.6929133858267722
  9
$INSUNITS
 70
1
  9
$DIMEXO
 40
0.025
  9
$DIMTXT
 40
0.1
  9
$CLAYER
  8
motor_mount
  0
ENDSEC
  0
SECTION
  2
TABLES
  0
TABLE
  2
VPORT
  5
8
100
AcDbSymbolTable
 70
1
  0
VPORT
  5
30
100
AcDbSymbolTableRecord
100
AcDbViewportTableRecord
  2
*Active
 70
0
 10
0.0
 20
0.0
 11
1.0
 21
1.0
 12
286.3055555555554861
 22
148.5
 13
0.0
 23
0.0
 14
10.0
 24
10.0
 15
10.0
 25
10.0
 16
0.0
 26
0.0
 36
1.0
 17
0.0
 27
0.0
 37
0.0
 40
297.0
 41
1.92798353909465
 42
50.0
 43
0.0
 44
0.0
 50
0.0
 51
0.0
 71
0
 72
100
 73
1
 74
3
 75
1
 76
1
 77
0
 78
0
281
0
 65
1
110
0.0
120
0.0
130
0.0
111
1.0
121
0.0
131
0.0
112
0.0
122
1.0
132
0.0
 79
0
146
0.0
  0
ENDTAB
  0
TABLE
  2
LTYPE
  5
5
100
AcDbSymbolTable
 70
21
  0
LTYPE
  5
14
100
AcDbSymbolTableRecord
100
AcDbLinetypeTableRecord
  2
ByBlock
 70
0
  3

 72
65
 73
0
 40
0.0
  0
LTYPE
  5
15
100
AcDbSymbolTableRecord
100
AcDbLinetypeTableRecord
  2
ByLayer
 70
0
  3

 72
65
 73
0
 40
0.0
  0
LTYPE
  5
16
100
AcDbSymbolTableRecord
100
AcDbLinetypeTableRecord
  2
CONTINUOUS
 70
0
  3
Solid line
 72
65
 73
0
 40
0.0
  0
LTYPE
  5
31
100
AcDbSymbolTableRecord
100
AcDbLinetypeTableRecord
  2
DOT
 70
0
  3
Dot . . . . . . . . . . . . . . . . . . . . . .
 72
65
 73
2
 40
6.3499999999999996
 49
0.0
 74
0
 49
-6.3499999999999996
 74
0
  0
LTYPE
  5
32
100
AcDbSymbolTableRecord
100
AcDbLinetypeTableRecord
  2
DOT2
 70
0
  3
Dot (.5x) .....................................
 72
65
 73
2
 40
3.1749999999999998
 49
0.0
 74
0
 49
-3.1749999999999998
 74
0
  0
LTYPE
  5
33
100
AcDbSymbolTableRecord
100
AcDbLinetypeTableRecord
  2
DOTX2
 70
0
  3
Dot (2x) .  .  .  .  .  .  .  .  .  .  .  .  .
 72
65
 73
2
 40
12.6999999999999993
 49
0.0
 74
0
 49
-12.6999999999999993
 74
0
  0
LTYPE
  5
34
100
AcDbSymbolTableRecord
100
AcDbLinetypeTableRecord
  2
DASHED
 70
0
  3
Dashed __ __ __ __ __ __ __ __ __ __ __ __ __ _
 72
65
 73
2
 40
19.0500000000000007
 49
12.6999999999999993
 74
0
 49
-6.3499999999999996
 74
0
  0
LTYPE
  5
35
100
AcDbSymbolTableRecord
100
AcDbLinetypeTableRecord
  2
DASHED2
 70
0
  3
Dashed (.5x) _ _ _ _ _ _ _ _ _ _ _ _ _ _ _ _ _
 72
65
 73
2
 40
9.5250000000000004
 49
6.3499999999999996
 74
0
 49
-3.1749999999999998
 74
0
  0
LTYPE
  5
36
100
AcDbSymbolTableRecord
100
AcDbLinetypeTableRecord
  2
DASHEDX2
 70
0
  3
Dashed (2x) ____  ____  ____  ____  ____  ___
 72
65
 73
2
 40
38.1000000000000014
 49
25.3999999999999986
 74
0
 49
-12.6999999999999993
 74
0
  0
LTYPE
  5
37
100
AcDbSymbolTableRecord
100
AcDbLinetypeTableRecord
  2
DASHDOT
 70
0
  3
Dash dot __ . __ . __ . __ . __ . __ . __ . __
 72
65
 73
4
 40
25.3999999999999986
 49
12.6999999999999993
 74
0
 49
-6.3499999999999996
 74
0
 49
0.0
 74
0
 49
-6.3499999999999996
 74
0
  0
LTYPE
  5
38
100
AcDbSymbolTableRecord
100
AcDbLinetypeTableRecord
  2
DASHDOT2
 70
0
  3
Dash dot (.5x) _._._._._._._._._._._._._._._.
 72
65
 73
4
 40
12.6999999999999993
 49
6.3499999999999996
 74
0
 49
-3.1749999999999998
 74
0
 49
0.0
 74
0
 49
-3.1749999999999998
 74
0
  0
LTYPE
  5
39
100
AcDbSymbolTableRecord
100
AcDbLinetypeTableRecord
  2
DASHDOTX2
 70
0
  3
Dash dot (2x) ____  .  ____  .  ____  .  ___
 72
65
 73
4
 40
50.7999999999999972
 49
25.3999999999999986
 74
0
 49
-12.6999999999999993
 74
0
 49
0.0
 74
0
 49
-12.6999999999999993
 74
0
  0
LTYPE
  5
3A
100
AcDbSymbolTableRecord
100
AcDbLinetypeTableRecord
  2
DIVIDE
 70
0
  3
Divide ____ . . ____ . . ____ . . ____ . . ____
 72
65
 73
6
 40
31.75
 49
12.6999999999999993
 74
0
 49
-6.3499999999999996
 74
0
 49
0.0
 74
0
 49
-6.3499999999999996
 74
0
 49
0.0
 74
0
 49
-6.3499999999999996
 74
0
  0
LTYPE
  5
3B
100
AcDbSymbolTableRecord
100
AcDbLinetypeTableRecord
  2
DIVIDE2
 70
0
  3
Divide (.5x) __..__..__..__..__..__..__..__.._
 72
65
 73
6
 40
15.875
 49
6.3499999999999996
 74
0
 49
-3.1749999999999998
 74
0
 49
0.0
 74
0
 49
-3.1749999999999998
 74
0
 49
0.0
 74
0
 49
-3.1749999999999998
 74
0
  0
LTYPE
  5
3C
100
AcDbSymbolTableRecord
100
AcDbLinetypeTableRecord
  2
DIVIDEX2
 70
0
  3
Divide (2x) ________  .  .  ________  .  .  _
 72
65
 73
6
 40
63.5
 49
25.3999999999999986
 74
0
 49
-12.6999999999999993
 74
0
 49
0.0
 74
0
 49
-12.6999999999999993
 74
0
 49
0.0
 74
0
 49
-12.6999999999999993
 74
0
  0
LTYPE
  5
3D
100
AcDbSymbolTableRecord
100
AcDbLinetypeTableRecord
  2
CENTER
 70
0
  3
Center ____ _ ____ _ ____ _ ____ _ ____ _ ____
 72
65
 73
4
 40
50.7999999999999972
 49
31.75
 74
0
 49
-6.3499999999999996
 74
0
 49
6.3499999999999996
 74
0
 49
-6.3499999999999996
 74
0
  0
LTYPE
  5
3E
100
AcDbSymbolTableRecord
100
AcDbLinetypeTableRecord
  2
CENTER2
 70
0
  3
Center (.5x) ___ _ ___ _ ___ _ ___ _ ___ _ ___
 72
65
 73
4
 40
28.5749999999999993
 49
19.0500000000000007
 74
0
 49
-3.1749999999999998
 74
0
 49
3.1749999999999998
 74
0
 49
-3.1749999999999998
 74
0
  0
LTYPE
  5
3F
100
AcDbSymbolTableRecord
100
AcDbLinetypeTableRecord
  2
CENTERX2
 70
0
  3
Center (2x) ________  __  ________  __  _____
 72
65
 73
4
 40
101.5999999999999943
 49
63.5
 74
0
 49
-12.6999999999999993
 74
0
 49
12.6999999999999993
 74
0
 49
-12.6999999999999993
 74
0
  0
LTYPE
  5
40
100
AcDbSymbolTableRecord
100
AcDbLinetypeTableRecord
  2
BORDER
 70
0
  3
Border __ __ . __ __ . __ __ . __ __ . __ __ .
 72
65
 73
6
 40
44.4500000000000028
 49
12.6999999999999993
 74
0
 49
-6.3499999999999996
 74
0
 49
12.6999999999999993
 74
0
 49
-6.3499999999999996
 74
0
 49
0.0
 74
0
 49
-6.3499999999999996
 74
0
  0
LTYPE
  5
41
100
AcDbSymbolTableRecord
100
AcDbLinetypeTableRecord
  2
BORDER2
 70
0
  3
Border (.5x) __.__.__.__.__.__.__.__.__.__.__.
 72
65
 73
6
 40
22.2250000000000014
 49
6.3499999999999996
 74
0
 49
-3.1749999999999998
 74
0
 49
6.3499999999999996
 74
0
 49
-3.1749999999999998
 74
0
 49
0.0
 74
0
 49
-3.1749999999999998
 74
0
  0
LTYPE
  5
42
100
AcDbSymbolTableRecord
100
AcDbLinetypeTableRecord
  2
BORDERX2
 70
0
  3
Border (2x) ____  ____  .  ____  ____  .  ___
 72
65
 73
6
 40
88.9000000000000057
 49
25.3999999999999986
 74
0
 49
-12.6999999999999993
 74
0
 49
25.3999999999999986
 74
0
 49
-12.6999999999999993
 74
0
 49
0.0
 74
0
 49
-12.6999999999999993
 74
0
  0
ENDTAB
  0
TABLE
  2
LAYER
  5
2
100
AcDbSymbolTable
 70
7
  0
LAYER
  5
10
100
AcDbSymbolTableRecord
100
AcDbLayerTableRecord
  2
0
 70
0
 62
7
420
0
  6
CONTINUOUS
370
25
390
F
  0
LAYER
  5
43
100
AcDbSymbolTableRecord
100
AcDbLayerTableRecord
  2
drawing
 70
0
 62
5
420
255
  6
CONTINUOUS
370
0
390
F
  0
LAYER
  5
44
100
AcDbSymbolTableRecord
100
AcDbLayerTableRecord
  2
side1
 70
0
 62
7
420
0
  6
CONTINUOUS
370
0
390
F
  0
LAYER
  5
45
100
AcDbSymbolTableRecord
100
AcDbLayerTableRecord
  2
side2
 70
0
 62
7
420
0
  6
CONTINUOUS
370
0
390
F
  0
LAYER
  5
46
100
AcDbSymbolTableRecord
100
AcDbLayerTableRecord
  2
side3
 70
0
 62
7
420
0
  6
CONTINUOUS
370
0
390
F
  0
LAYER
  5
47
100
AcDbSymbolTableRecord
100
AcDbLayerTableRecord
  2
base
 70
0
 62
7
420
0
  6
CONTINUOUS
370
0
390
F
  0
LAYER
  5
48
100
AcDbSymbolTableRecord
100
AcDbLayerTableRecord
  2
motor_mount
 70
0
 62
7
420
0
  6
CONTINUOUS
370
0
390
F
  0
ENDTAB
  0
TABLE
  2
STYLE
  5
3
100
AcDbSymbolTable
 70
1
  0
STYLE
  5
11
100
AcDbSymbolTableRecord
100
AcDbTextStyleTableRecord
  2
Standard
 70
0
 40
0.0
 41
0.75
 50
0.0
 71
0
 42
2.5
  3
txt
  4

  0
ENDTAB
  0
TABLE
  2
VIEW
  5
6
100
AcDbSymbolTable
 70
0
  0
ENDTAB
  0
TABLE
  2
UCS
  5
7
100
AcDbSymbolTable
 70
0
  0
ENDTAB
  0
TABLE
  2
APPID
  5
9
100
AcDbSymbolTable
 70
1
  0
APPID
  5
12
100
AcDbSymbolTableRecord
100
AcDbRegAppTableRecord
  2
ACAD
 70
0
  0
ENDTAB
  0
TABLE
  2
DIMSTYLE
  5
A
100
AcDbSymbolTable
 70
1
100
AcDbDimStyleTable
 71
0
  0
DIMSTYLE
105
27
100
AcDbSymbolTableRecord
100
AcDbDimStyleTableRecord
  2
Standard
 41
0.1
 42
0.025
 43
3.75
 44
0.05
 70
0
 73
0
 74
0
 77
1
 78
8
140
0.1
141
2.5
143
0.03937007874016
147
0.025
171
3
172
1
271
2
272
2
274
3
278
44
283
0
284
8
340
11
  0
ENDTAB
  0
TABLE
  2
BLOCK_RECORD
  5
1
100
AcDbSymbolTable
 70
1
  0
BLOCK_RECORD
  5
1F
100
AcDbSymbolTableRecord
100
AcDbBlockTableRecord
  2
*Model_Space
340
22
  0
BLOCK_RECORD
  5
1B
100
AcDbSymbolTableRecord
100
AcDbBlockTableRecord
  2
*Paper_Space
340
1E
  0
BLOCK_RECORD
  5
23
100
AcDbSymbolTableRecord
100
AcDbBlockTableRecord
  2
*Paper_Space0
340
26
  0
ENDTAB
  0
ENDSEC
  0
SECTION
  2
BLOCKS
  0
BLOCK
  5
20
100
AcDbEntity
  8
0
100
AcDbBlockBegin
  2
*Model_Space
 70
0
 10
0.0
 20
0.0
 30
0.0
  3
*Model_Space
  1

  0
ENDBLK
  5
21
100
AcDbEntity
  8
0
100
AcDbBlockEnd
  0
BLOCK
  5
1C
100
AcDbEntity
 67
1
  8
0
100
AcDbBlockBegin
  2
*Paper_Space
 70
0
 10
0.0
 20
0.0
 30
0.0
  3
*Paper_Space
  1

  0
ENDBLK
  5
1D
100
AcDbEntity
 67
1
  8
0
100
AcDbBlockEnd
  0
BLOCK
  5
24
100
AcDbEntity
  8
0
100
AcDbBlockBegin
  2
*Paper_Space0
 70
0
 10
0.0
 20
0.0
 30
0.0
  3
*Paper_Space0
  1

  0
ENDBLK
  5
25
100
AcDbEntity
  8
0
100
AcDbBlockEnd
  0
ENDSEC
  0
SECTION
  2
ENTITIES
  0
LINE
  5
49
100
AcDbEntity
100
AcDbLine
  8
drawing
 62
256
370
-1
  6
ByLayer
 10
0.0
 20
0.0
 30
0.0
 11
0.0
 21
70.0
 31
0.0
  0
LINE
  5
4A
100
AcDbEntity
100
AcDbLine
  8
drawing
 62
256
370
-1
  6
ByLayer
 10
0.0
 20
70.0
 30
0.0
 11
80.0
 21
70.0
 31
0.0
  0
LINE
  5
4B
100
AcDbEntity
100
AcDbLine
  8
drawing
 62
256
370
-1
  6
ByLayer
 10
80.0
 20
70.0
 30
0.0
 11
0.0
 21
0.0
 31
0.0
  0
LINE
  5
4C
100
AcDbEntity
100
AcDbLine
  8
drawing
 62
256
370
-1
  6
ByLayer
 10
80.0
 20
70.0
 30
0.0
 11
80.0
 21
0.0
 31
0.0
  0
LINE
  5
4D
100
AcDbEntity
100
AcDbLine
  8
drawing
 62
256
370
-1
  6
ByLayer
 10
0.0
 20
0.0
 30
0.0
 11
-20.0
 21
20.0
 31
0.0
  0
LINE
  5
4E
100
AcDbEntity
100
AcDbLine
  8
drawing
 62
256
370
-1
  6
ByLayer
 10
0.0
 20
0.0
 30
0.0
 11
-30.0
 21
20.0
 31
0.0
  0
ARC
  5
4F
100
AcDbEntity
  8
drawing
 62
256
370
-1
  6
ByLayer
100
AcDbCircle
 10
97.7038235294116078
 20
-30.947226890756184
 30
0.0
 40
102.4878918921369291
100
AcDbArc
 50
99.9472037609124442
 51
162.4246465705068374
  0
CIRCLE
  5
50
100
AcDbEntity
100
AcDbCircle
  8
drawing
 62
256
370
-1
  6
ByLayer
 10
0.0000000000000142
 20
0.0000000000000142
 30
0.0
 40
14.0
  0
CIRCLE
  5
51
100
AcDbEntity
100
AcDbCircle
  8
drawing
 62
256
370
-1
  6
ByLayer
 10
0.0
 20
0.0
 30
0.0
 40
16.0
  0
CIRCLE
  5
52
100
AcDbEntity
100
AcDbCircle
  8
side1
 62
256
370
-1
  6
ByLayer
 10
84.4800000000000892
 20
69.4400000000000688
 30
0.0
 40
3.1000000000000001
  0
ARC
  5
53
100
AcDbEntity
  8
side1
 62
256
370
-1
  6
ByLayer
100
AcDbCircle
 10
88.7294096830288908
 20
-29.618250302531159
 30
0.0
 40
106.8982876936484843
100
AcDbArc
 50
90.0479221715610834
 51
146.1024194891153627
  0
ARC
  5
54
100
AcDbEntity
  8
side1
 62
256
370
-1
  6
ByLayer
100
AcDbCircle
 10
-15.0000000000000053
 20
-1.6666666666666801
 30
0.0
 40
35.0396600693810569
100
AcDbArc
 50
64.653824058053317
 51
177.2736890060937753
  0
ARC
  5
55
100
AcDbEntity
  8
side1
 62
256
370
-1
  6
ByLayer
100
AcDbCircle
 10
-30.2549112426036757
 20
-5.6326734803656144
 30
0.0
 40
20.5327918358384096
100
AcDbArc
 50
106.2483079841670417
 51
164.0781628106712162
  0
ARC
  5
56
100
AcDbEntity
  8
side1
 62
256
370
-1
  6
ByLayer
100
AcDbCircle
 10
-18.8894491590805167
 20
-1.1345101064649989
 30
0.0
 40
22.8965558077938347
100
AcDbArc
 50
138.3568630735147735
 51
202.7802336461764128
  0
ARC
  5
57
100
AcDbEntity
  8
side1
 62
256
370
-1
  6
ByLayer
100
AcDbCircle
 10
-17.2426431718062858
 20
-11.4435829662260318
 30
0.0
 40
22.8030967543031977
100
AcDbArc
 50
113.6772339486846732
 51
176.3703807801957737
  0
LINE
  5
58
100
AcDbEntity
100
AcDbLine
  8
drawing
 62
256
370
-1
  6
ByLayer
 10
-26.0
 20
0.0000000000000032
 30
0.0
 11
30.0
 21
0.0
 31
0.0
  0
LINE
  5
59
100
AcDbEntity
100
AcDbLine
  8
drawing
 62
256
370
-1
  6
ByLayer
 10
-25.9999999999999964
 20
11.1000000000000032
 30
0.0
 11
30.0000000000000036
 21
11.0999999999999996
 31
0.0
  0
LINE
  5
5A
100
AcDbEntity
100
AcDbLine
  8
drawing
 62
256
370
-1
  6
ByLayer
 10
-26.0
 20
-11.0999999999999961
 30
0.0
 11
29.9999999999999964
 21
-11.0999999999999996
 31
0.0
  0
LINE
  5
5B
100
AcDbEntity
100
AcDbLine
  8
drawing
 62
256
370
-1
  6
ByLayer
 10
-26.0
 20
-11.0999999999999961
 30
0.0
 11
-26.0
 21
70.0
 31
0.0
  0
LINE
  5
5C
100
AcDbEntity
100
AcDbLine
  8
side1
 62
256
370
-1
  6
ByLayer
 10
-26.400000000000027
 20
9.4400000000000102
 30
0.0
 11
-26.0
 21
11.100000000000005
 31
0.0
  0
LINE
  5
5D
100
AcDbEntity
100
AcDbLine
  8
side1
 62
256
370
-1
  6
ByLayer
 10
-26.0
 20
11.100000000000005
 30
0.0
 11
-26.0
 21
-11.0999999999999961
 31
0.0
  0
LINE
  5
5E
100
AcDbEntity
100
AcDbLine
  8
side1
 62
256
370
-1
  6
ByLayer
 10
20.0
 20
-20.0
 30
0.0
 11
19.8446297455183718
 21
11.0999999999999996
 31
0.0
  0
LINE
  5
5F
100
AcDbEntity
100
AcDbLine
  8
side1
 62
256
370
-1
  6
ByLayer
 10
-26.0
 20
-11.0999999999999979
 30
0.0
 11
-20.0
 21
-20.0
 31
0.0
  0
ARC
  5
60
100
AcDbEntity
  8
side1
 62
256
370
-1
  6
ByLayer
100
AcDbCircle
 10
101.9295965452438111
 20
-23.5470174737095412
 30
0.0
 40
89.0974612115045801
100
AcDbArc
 50
98.8904278443767737
 51
157.1160122057932824
  0
LINE
  5
61
100
AcDbEntity
100
AcDbLine
  8
side1
 62
256
370
-1
  6
ByLayer
 10
-16.0
 20
-23.0
 30
0.0
 11
-6.0
 21
-23.0
 31
0.0
  0
LINE
  5
62
100
AcDbEntity
100
AcDbLine
  8
side1
 62
256
370
-1
  6
ByLayer
 10
4.0
 20
-23.0
 30
0.0
 11
15.0
 21
-23.0
 31
0.0
  0
LINE
  5
63
100
AcDbEntity
100
AcDbLine
  8
side1
 62
256
370
-1
  6
ByLayer
 10
15.0
 20
-20.0
 30
0.0
 11
20.0
 21
-20.0
 31
0.0
  0
LINE
  5
64
100
AcDbEntity
100
AcDbLine
  8
side1
 62
256
370
-1
  6
ByLayer
 10
-20.0
 20
-20.0
 30
0.0
 11
-16.0
 21
-20.0
 31
0.0
  0
LINE
  5
65
100
AcDbEntity
100
AcDbLine
  8
side1
 62
256
370
-1
  6
ByLayer
 10
-6.0
 20
-20.0
 30
0.0
 11
4.0
 21
-20.0
 31
0.0
  0
LINE
  5
66
100
AcDbEntity
100
AcDbLine
  8
side1
 62
256
370
-1
  6
ByLayer
 10
-16.0
 20
-20.0
 30
0.0
 11
-16.0
 21
-23.0
 31
0.0
  0
LINE
  5
67
100
AcDbEntity
100
AcDbLine
  8
side1
 62
256
370
-1
  6
ByLayer
 10
-6.0
 20
-23.0
 30
0.0
 11
-6.0
 21
-20.0
 31
0.0
  0
LINE
  5
68
100
AcDbEntity
100
AcDbLine
  8
side1
 62
256
370
-1
  6
ByLayer
 10
4.0
 20
-20.0
 30
0.0
 11
4.0
 21
-23.0
 31
0.0
  0
LINE
  5
69
100
AcDbEntity
100
AcDbLine
  8
side1
 62
256
370
-1
  6
ByLayer
 10
15.0
 20
-23.0
 30
0.0
 11
15.0
 21
-20.0
 31
0.0
  0
CIRCLE
  5
6A
100
AcDbEntity
100
AcDbCircle
  8
side1
 62
256
370
-1
  6
ByLayer
 10
0.0000000000000178
 20
0.0000000000000017
 30
0.0
 40
15.9999999999999822
  0
ARC
  5
6B
100
AcDbEntity
  8
side1
 62
256
370
-1
  6
ByLayer
100
AcDbCircle
 10
87.2497125465000209
 20
70.9231357795063104
 30
0.0
 40
6.5071208626514245
100
AcDbArc
 50
278.0415372390891093
 51
77.6632919043139935
  0
LINE
  5
6C
100
AcDbEntity
100
AcDbLine
  8
side3
 62
256
370
-1
  6
ByLayer
 10
132.1215832954242728
 20
133.9599999999999795
 30
0.0
 11
132.1215832954242444
 21
111.7600000000000051
 31
0.0
  0
LINE
  5
6D
100
AcDbEntity
100
AcDbLine
  8
side3
 62
256
370
-1
  6
ByLayer
 10
132.1215832954242444
 20
111.7600000000000051
 30
0.0
 11
138.1215832954242728
 21
102.8599999999999568
 31
0.0
  0
ARC
  5
6E
100
AcDbEntity
  8
side3
 62
256
370
-1
  6
ByLayer
100
AcDbCircle
 10
158.1215832954243297
 20
122.8599999999999568
 30
0.0
 40
15.9999999999999822
100
AcDbArc
 50
89.9999999999915872
 51
270.6199243926017743
  0
LINE
  5
6F
100
AcDbEntity
100
AcDbLine
  8
side3
 62
256
370
-1
  6
ByLayer
 10
178.1215832954242444
 20
102.8599999999999568
 30
0.0
 11
178.1010599976583535
 21
106.9680872439084709
 31
0.0
  0
LINE
  5
70
100
AcDbEntity
100
AcDbLine
  8
side3
 62
256
370
-1
  6
ByLayer
 10
158.2946954660048959
 20
106.8609365218961216
 30
0.0
 11
178.1010599976583535
 21
106.9680872439084709
 31
0.0
  0
CIRCLE
  5
71
100
AcDbEntity
100
AcDbCircle
  8
side2
 62
256
370
-1
  6
ByLayer
 10
72.6015832954243763
 20
192.3000000000000398
 30
0.0
 40
3.1000000000000001
  0
ARC
  5
72
100
AcDbEntity
  8
side2
 62
256
370
-1
  6
ByLayer
100
AcDbCircle
 10
76.8509929784531778
 20
93.2417496974688049
 30
0.0
 40
106.8982876936484843
100
AcDbArc
 50
90.0479221715610834
 51
146.1024194891153627
  0
ARC
  5
73
100
AcDbEntity
  8
side2
 62
256
370
-1
  6
ByLayer
100
AcDbCircle
 10
-26.8784167045757343
 20
121.1933333333332996
 30
0.0
 40
35.0396600693810569
100
AcDbArc
 50
64.653824058053317
 51
177.2736890060937753
  0
ARC
  5
74
100
AcDbEntity
  8
side2
 62
256
370
-1
  6
ByLayer
100
AcDbCircle
 10
-42.1333279471794029
 20
117.2273265196343459
 30
0.0
 40
20.5327918358384096
100
AcDbArc
 50
106.2483079841670417
 51
164.0781628106712162
  0
ARC
  5
75
100
AcDbEntity
  8
side2
 62
256
370
-1
  6
ByLayer
100
AcDbCircle
 10
-30.7678658636562545
 20
121.7254898935349843
 30
0.0
 40
22.8965558077938347
100
AcDbArc
 50
138.3568630735147735
 51
202.7802336461764128
  0
ARC
  5
76
100
AcDbEntity
  8
side2
 62
256
370
-1
  6
ByLayer
100
AcDbCircle
 10
-29.121059876382013
 20
111.4164170337739392
 30
0.0
 40
22.8030967543031977
100
AcDbArc
 50
113.6772339486846732
 51
176.3703807801957737
  0
LINE
  5
77
100
AcDbEntity
100
AcDbLine
  8
side2
 62
256
370
-1
  6
ByLayer
 10
-38.2784167045757471
 20
132.2999999999999829
 30
0.0
 11
-37.8784167045757201
 21
133.9599999999999795
 31
0.0
  0
LINE
  5
78
100
AcDbEntity
100
AcDbLine
  8
side2
 62
256
370
-1
  6
ByLayer
 10
-37.8784167045757201
 20
133.9599999999999795
 30
0.0
 11
-37.8784167045757343
 21
111.7599999999999909
 31
0.0
  0
LINE
  5
79
100
AcDbEntity
100
AcDbLine
  8
side2
 62
256
370
-1
  6
ByLayer
 10
-37.8784167045757343
 20
111.7599999999999909
 30
0.0
 11
-31.8784167045757201
 21
102.8599999999999568
 31
0.0
  0
LINE
  5
7A
100
AcDbEntity
100
AcDbLine
  8
side2
 62
256
370
-1
  6
ByLayer
 10
-27.8784167045757059
 20
99.8599999999999568
 30
0.0
 11
-17.8784167045757414
 21
99.8599999999999852
 31
0.0
  0
LINE
  5
7B
100
AcDbEntity
100
AcDbLine
  8
side2
 62
256
370
-1
  6
ByLayer
 10
-7.8784167045757343
 20
99.8599999999999568
 30
0.0
 11
3.121583295424279
 21
99.8599999999999568
 31
0.0
  0
LINE
  5
7C
100
AcDbEntity
100
AcDbLine
  8
side2
 62
256
370
-1
  6
ByLayer
 10
3.1215832954242737
 20
102.8599999999999568
 30
0.0
 11
8.1215832954242568
 21
102.8599999999999568
 31
0.0
  0
LINE
  5
7D
100
AcDbEntity
100
AcDbLine
  8
side2
 62
256
370
-1
  6
ByLayer
 10
-31.8784167045757201
 20
102.8599999999999568
 30
0.0
 11
-27.8784167045757343
 21
102.859999999999971
 31
0.0
  0
LINE
  5
7E
100
AcDbEntity
100
AcDbLine
  8
side2
 62
256
370
-1
  6
ByLayer
 10
-17.8784167045757094
 20
102.8599999999999568
 30
0.0
 11
-7.8784167045757343
 21
102.859999999999971
 31
0.0
  0
LINE
  5
7F
100
AcDbEntity
100
AcDbLine
  8
side2
 62
256
370
-1
  6
ByLayer
 10
-27.8784167045757343
 20
102.859999999999971
 30
0.0
 11
-27.8784167045757059
 21
99.8599999999999568
 31
0.0
  0
LINE
  5
80
100
AcDbEntity
100
AcDbLine
  8
side2
 62
256
370
-1
  6
ByLayer
 10
-17.8784167045757414
 20
99.8599999999999852
 30
0.0
 11
-17.8784167045757094
 21
102.8599999999999568
 31
0.0
  0
LINE
  5
81
100
AcDbEntity
100
AcDbLine
  8
side2
 62
256
370
-1
  6
ByLayer
 10
-7.8784167045757343
 20
102.859999999999971
 30
0.0
 11
-7.8784167045757343
 21
99.8599999999999568
 31
0.0
  0
LINE
  5
82
100
AcDbEntity
100
AcDbLine
  8
side2
 62
256
370
-1
  6
ByLayer
 10
3.121583295424279
 20
99.8599999999999568
 30
0.0
 11
3.1215832954242737
 21
102.8599999999999568
 31
0.0
  0
ARC
  5
83
100
AcDbEntity
  8
side2
 62
256
370
-1
  6
ByLayer
100
AcDbCircle
 10
75.371295841924308
 20
193.7831357795062672
 30
0.0
 40
6.5071208626514245
100
AcDbArc
 50
278.0415372390891093
 51
77.6632919043139935
  0
ARC
  5
84
100
AcDbEntity
  8
side2
 62
256
370
-1
  6
ByLayer
100
AcDbCircle
 10
-11.8784167045756917
 20
122.8599999999999568
 30
0.0
 40
15.9999999999999822
100
AcDbArc
 50
89.9999999999915872
 51
270.6199243926017743
  0
LINE
  5
85
100
AcDbEntity
100
AcDbLine
  8
side2
 62
256
370
-1
  6
ByLayer
 10
8.1215832954242568
 20
102.8599999999999568
 30
0.0
 11
8.1010599976583819
 21
106.9680872439084709
 31
0.0
  0
ARC
  5
86
100
AcDbEntity
  8
side2
 62
256
370
-1
  6
ByLayer
100
AcDbCircle
 10
90.0511798406680555
 20
99.3129825262903694
 30
0.0
 40
89.0974612115045801
100
AcDbArc
 50
98.8904278443767737
 51
153.5773604528151282
  0
LINE
  5
87
100
AcDbEntity
100
AcDbLine
  8
side2
 62
256
370
-1
  6
ByLayer
 10
-11.8784167045733415
 20
138.8599999999999284
 30
0.0
 11
10.2611958565097829
 21
138.9603790378310464
 31
0.0
  0
LINE
  5
88
100
AcDbEntity
100
AcDbLine
  8
side2
 62
256
370
-1
  6
ByLayer
 10
-11.7053045339950881
 20
106.8609365218961074
 30
0.0
 11
8.1010599976583819
 21
106.9680872439084709
 31
0.0
  0
LINE
  5
89
100
AcDbEntity
100
AcDbLine
  8
side3
 62
256
370
-1
  6
ByLayer
 10
132.1215832954242728
 20
133.9599999999999795
 30
0.0
 11
158.1215832954242728
 21
152.8599999999999568
 31
0.0
  0
LINE
  5
8A
100
AcDbEntity
100
AcDbLine
  8
side3
 62
256
370
-1
  6
ByLayer
 10
138.1215832954242728
 20
102.8599999999999568
 30
0.0
 11
178.1215832954242444
 21
102.8599999999999568
 31
0.0
  0
LINE
  5
8B
100
AcDbEntity
100
AcDbLine
  8
side3
 62
256
370
-1
  6
ByLayer
 10
158.1215832954242728
 20
152.8599999999999568
 30
0.0
 11
165.3791062604452122
 21
138.8929049648115779
 31
0.0
  0
LINE
  5
8C
100
AcDbEntity
100
AcDbLine
  8
side3
 62
256
370
-1
  6
ByLayer
 10
158.1215832954266602
 20
138.8599999999999284
 30
0.0
 11
165.3791062604452122
 21
138.8929049648115779
 31
0.0
  0
LINE
  5
8D
100
AcDbEntity
100
AcDbLine
  8
drawing
 62
256
370
-1
  6
ByLayer
 10
-40.0
 20
-60.0
 30
0.0
 11
50.0
 21
-60.0
 31
0.0
  0
LINE
  5
8E
100
AcDbEntity
100
AcDbLine
  8
drawing
 62
256
370
-1
  6
ByLayer
 10
-40.0
 20
-58.5
 30
0.0
 11
50.0
 21
-58.5
 31
0.0
  0
LINE
  5
8F
100
AcDbEntity
100
AcDbLine
  8
drawing
 62
256
370
-1
  6
ByLayer
 10
-40.0
 20
-61.5
 30
0.0
 11
50.0
 21
-61.5
 31
0.0
  0
LINE
  5
90
100
AcDbEntity
100
AcDbLine
  8
drawing
 62
256
370
-1
  6
ByLayer
 10
-40.0
 20
-55.5
 30
0.0
 11
50.0
 21
-55.5
 31
0.0
  0
LINE
  5
91
100
AcDbEntity
100
AcDbLine
  8
drawing
 62
256
370
-1
  6
ByLayer
 10
-40.0
 20
-64.5
 30
0.0
 11
50.0
 21
-64.5
 31
0.0
  0
LINE
  5
92
100
AcDbEntity
100
AcDbLine
  8
drawing
 62
256
370
-1
  6
ByLayer
 10
-16.0
 20
-17.0
 30
0.0
 11
-16.0
 21
-64.5
 31
0.0
  0
LINE
  5
93
100
AcDbEntity
100
AcDbLine
  8
drawing
 62
256
370
-1
  6
ByLayer
 10
-6.0
 20
-17.0
 30
0.0
 11
-6.0
 21
-64.5
 31
0.0
  0
LINE
  5
94
100
AcDbEntity
100
AcDbLine
  8
drawing
 62
256
370
-1
  6
ByLayer
 10
4.0
 20
-64.5
 30
0.0
 11
4.0
 21
-18.0
 31
0.0
  0
LINE
  5
95
100
AcDbEntity
100
AcDbLine
  8
drawing
 62
256
370
-1
  6
ByLayer
 10
15.0
 20
-18.0
 30
0.0
 11
15.0
 21
-64.5
 31
0.0
  0
LINE
  5
96
100
AcDbEntity
100
AcDbLine
  8
base
 62
256
370
-1
  6
ByLayer
 10
-16.0
 20
-55.5
 30
0.0
 11
-6.0
 21
-55.5
 31
0.0
  0
LINE
  5
97
100
AcDbEntity
100
AcDbLine
  8
base
 62
256
370
-1
  6
ByLayer
 10
-6.0
 20
-55.5
 30
0.0
 11
-6.0
 21
-58.5
 31
0.0
  0
LINE
  5
98
100
AcDbEntity
100
AcDbLine
  8
base
 62
256
370
-1
  6
ByLayer
 10
-6.0
 20
-58.5
 30
0.0
 11
-16.0
 21
-58.5
 31
0.0
  0
LINE
  5
99
100
AcDbEntity
100
AcDbLine
  8
base
 62
256
370
-1
  6
ByLayer
 10
-16.0
 20
-58.5
 30
0.0
 11
-16.0
 21
-55.5
 31
0.0
  0
LINE
  5
9A
100
AcDbEntity
100
AcDbLine
  8
base
 62
256
370
-1
  6
ByLayer
 10
4.0
 20
-55.5
 30
0.0
 11
15.0
 21
-55.5
 31
0.0
  0
LINE
  5
9B
100
AcDbEntity
100
AcDbLine
  8
base
 62
256
370
-1
  6
ByLayer
 10
15.0
 20
-55.5
 30
0.0
 11
15.0
 21
-58.5
 31
0.0
  0
LINE
  5
9C
100
AcDbEntity
100
AcDbLine
  8
base
 62
256
370
-1
  6
ByLayer
 10
15.0
 20
-58.5
 30
0.0
 11
4.0
 21
-58.5
 31
0.0
  0
LINE
  5
9D
100
AcDbEntity
100
AcDbLine
  8
base
 62
256
370
-1
  6
ByLayer
 10
4.0
 20
-58.5
 30
0.0
 11
4.0
 21
-55.5
 31
0.0
  0
LINE
  5
9E
100
AcDbEntity
100
AcDbLine
  8
base
 62
256
370
-1
  6
ByLayer
 10
-16.0
 20
-61.5
 30
0.0
 11
-6.0
 21
-61.5
 31
0.0
  0
LINE
  5
9F
100
AcDbEntity
100
AcDbLine
  8
base
 62
256
370
-1
  6
ByLayer
 10
-6.0
 20
-61.5
 30
0.0
 11
-6.0
 21
-64.5
 31
0.0
  0
LINE
  5
A0
100
AcDbEntity
100
AcDbLine
  8
base
 62
256
370
-1
  6
ByLayer
 10
-6.0
 20
-64.5
 30
0.0
 11
-16.0
 21
-64.5
 31
0.0
  0
LINE
  5
A1
100
AcDbEntity
100
AcDbLine
  8
base
 62
256
370
-1
  6
ByLayer
 10
-16.0
 20
-64.5
 30
0.0
 11
-16.0
 21
-61.5
 31
0.0
  0
LINE
  5
A2
100
AcDbEntity
100
AcDbLine
  8
base
 62
256
370
-1
  6
ByLayer
 10
4.0
 20
-61.5
 30
0.0
 11
15.0
 21
-61.5
 31
0.0
  0
LINE
  5
A3
100
AcDbEntity
100
AcDbLine
  8
base
 62
256
370
-1
  6
ByLayer
 10
15.0
 20
-61.5
 30
0.0
 11
15.0
 21
-64.5
 31
0.0
  0
LINE
  5
A4
100
AcDbEntity
100
AcDbLine
  8
base
 62
256
370
-1
  6
ByLayer
 10
15.0
 20
-64.5
 30
0.0
 11
4.0
 21
-64.5
 31
0.0
  0
LINE
  5
A5
100
AcDbEntity
100
AcDbLine
  8
base
 62
256
370
-1
  6
ByLayer
 10
4.0
 20
-64.5
 30
0.0
 11
4.0
 21
-61.5
 31
0.0
  0
CIRCLE
  5
A6
100
AcDbEntity
100
AcDbCircle
  8
base
 62
256
370
-1
  6
ByLayer
 10
0.0
 20
-60.0
 30
0.0
 40
30.0
  0
LINE
  5
A7
100
AcDbEntity
100
AcDbLine
  8
motor_mount
 62
256
370
-1
  6
ByLayer
 10
114.0
 20
11.1000000000000068
 30
0.0
 11
114.0
 21
-11.0999999999999943
 31
0.0
  0
LINE
  5
A8
100
AcDbEntity
100
AcDbLine
  8
motor_mount
 62
256
370
-1
  6
ByLayer
 10
114.0
 20
11.100000000000005
 30
0.0
 11
128.4765456567920126
 21
11.1000000000000032
 31
0.0
  0
ARC
  5
A9
100
AcDbEntity
  8
motor_mount
 62
256
370
-1
  6
ByLayer
100
AcDbCircle
 10
140.0000000000000284
 20
0.0000000000000041
 30
0.0
 40
15.9999999999999822
100
AcDbArc
 50
136.0723081249905988
 51
223.9276918750094012
  0
LINE
  5
AA
100
AcDbEntity
100
AcDbLine
  8
motor_mount
 62
256
370
-1
  6
ByLayer
 10
114.0
 20
-11.0999999999999943
 30
0.0
 11
128.4765456567920126
 21
-11.0999999999999961
 31
0.0
  0
ARC
  5
AB
100
AcDbEntity
  8
motor_mount
 62
256
370
-1
  6
ByLayer
100
AcDbCircle
 10
140.0
 20
0.0000000000000024
 30
0.0
 40
16.0
100
AcDbArc
 50
136.0723081249905988
 51
223.9276918750094012
  0
ENDSEC
  0
SECTION
  2
OBJECTS
  0
DICTIONARY
  5
C
100
AcDbDictionary
280
0
281
1
  3
ACAD_GROUP
350
D
  3
ACAD_LAYOUT
350
1A
  3
ACAD_MLINESTYLE
350
17
  3
ACAD_PLOTSETTINGS
350
19
  3
ACAD_PLOTSTYLENAME
350
E
  3
AcDbVariableDictionary
350
AC
  0
DICTIONARY
  5
D
100
AcDbDictionary
280
0
281
1
  0
ACDBDICTIONARYWDFLT
  5
E
100
AcDbDictionary
281
1
  3
Normal
350
F
100
AcDbDictionaryWithDefault
340
F
  0
ACDBPLACEHOLDER
  5
F
  0
DICTIONARY
  5
17
100
AcDbDictionary
280
0
281
1
  3
Standard
350
18
  0
MLINESTYLE
  5
18
100
AcDbMlineStyle
  2
STANDARD
 70
0
  3

 62
256
 51
90.0
 52
90.0
 71
2
 49
0.5
 62
256
  6
BYLAYER
 49
-0.5
 62
256
  6
BYLAYER
  0
DICTIONARY
  5
19
100
AcDbDictionary
280
0
281
1
  0
DICTIONARY
  5
1A
100
AcDbDictionary
281
1
  3
Layout1
350
1E
  3
Layout2
350
26
  3
Model
350
22
  0
LAYOUT
  5
1E
100
AcDbPlotSettings
  1

  2
C:\Program Files\AutoCAD 2002\plotters\DWF ePlot (optimized for plotting).pc3
  4

  6

 40
0.0
 41
0.0
 42
0.0
 43
0.0
 44
0.0
 45
0.0
 46
0.0
 47
0.0
 48
0.0
 49
0.0
140
0.0
141
0.0
142
1.0
143
1.0
 70
688
 72
0
 73
0
 74
5
  7

 75
16
147
1.0
148
0.0
149
0.0
100
AcDbLayout
  1
Layout1
 70
1
 71
1
 10
0.0
 20
0.0
 11
420.0
 21
297.0
 12
0.0
 22
0.0
 32
0.0
 14
100000000000000000000.0
 24
100000000000000000000.0
 34
100000000000000000000.0
 15
-100000000000000000000.0
 25
-100000000000000000000.0
 35
-100000000000000000000.0
146
0.0
 13
0.0
 23
0.0
 33
0.0
 16
1.0
 26
0.0
 36
0.0
 17
0.0
 27
1.0
 37
0.0
 76
0
330
1B
  0
LAYOUT
  5
22
100
AcDbPlotSettings
  1

  2
C:\Program Files\AutoCAD 2002\plotters\DWF ePlot (optimized for plotting).pc3
  4

  6

 40
0.0
 41
0.0
 42
0.0
 43
0.0
 44
0.0
 45
0.0
 46
0.0
 47
0.0
 48
0.0
 49
0.0
140
0.0
141
0.0
142
1.0
143
1.0
 70
1712
 72
0
 73
0
 74
0
  7

 75
0
147
1.0
148
0.0
149
0.0
100
AcDbLayout
  1
Model
 70
1
 71
0
 10
0.0
 20
0.0
 11
12.0
 21
9.0
 12
0.0
 22
0.0
 32
0.0
 14
0.0
 24
0.0
 34
0.0
 15
0.0
 25
0.0
 35
0.0
146
0.0
 13
0.0
 23
0.0
 33
0.0
 16
1.0
 26
0.0
 36
0.0
 17
0.0
 27
1.0
 37
0.0
 76
0
330
1F
  0
LAYOUT
  5
26
100
AcDbPlotSettings
  1

  2
C:\Program Files\AutoCAD 2002\plotters\DWF ePlot (optimized for plotting).pc3
  4

  6

 40
0.0
 41
0.0
 42
0.0
 43
0.0
 44
0.0
 45
0.0
 46
0.0
 47
0.0
 48
0.0
 49
0.0
140
0.0
141
0.0
142
1.0
143
1.0
 70
688
 72
0
 73
0
 74
5
  7

 75
16
147
1.0
148
0.0
149
0.0
100
AcDbLayout
  1
Layout2
 70
1
 71
2
 10
0.0
 20
0.0
 11
12.0
 21
9.0
 12
0.0
 22
0.0
 32
0.0
 14
0.0
 24
0.0
 34
0.0
 15
0.0
 25
0.0
 35
0.0
146
0.0
 13
0.0
 23
0.0
 33
0.0
 16
1.0
 26
0.0
 36
0.0
 17
0.0
 27
1.0
 37
0.0
 76
0
330
23
  0
DICTIONARY
  5
AC
100
AcDbDictionary
281
1
  3
DIMASSOC
350
AE
  3
HIDETEXT
350
AD
  0
DICTIONARYVAR
  5
AD
100
DictionaryVariables
280
0
  1
2
  0
DICTIONARYVAR
  5
AE
100
DictionaryVariables
280
0
  1
1
  0
ENDSEC
  0
EOF
